<svg xmlns="http://www.w3.org/2000/svg" width="15" height="22" viewBox="0 0 369.7 547.2" enable-background="new 0 0 369.7 547.2"><style type="text/css">.st0{opacity:0.15;filter:url(#AI_GaussianBlur_7);} .st1{fill:url(#SVGID_1_);} .st2{fill:none;stroke:#FFFFFF;stroke-width:20;stroke-miterlimit:10;}</style><filter id="AI_GaussianBlur_7"><feGaussianBlur stdDeviation="7"/></filter><g class="st0"><ellipse cx="184.9" cy="491.7" rx="108.5" ry="46.3"/></g><g id="path3029"><linearGradient id="SVGID_1_" gradientUnits="userSpaceOnUse" x1="184.857" y1="503.186" x2="184.857" y2="10"><stop offset="0" stop-color="#597297"/><stop offset="1" stop-color="#7C9DCE"/></linearGradient><path class="st1" d="M359.7 184.9c0 24.8-3.8 45.2-11.3 61.1L224.1 478.9c-3.6 7.5-9.1 13.4-16.2 17.8s-14.9 6.5-23.1 6.5-15.9-2.2-23.1-6.5-12.5-10.2-15.9-17.8L21.3 246C13.8 230.1 10 209.7 10 184.9c0-48.3 17.1-89.5 51.2-123.6S136.6 10 184.9 10s89.5 17.1 123.6 51.2 51.2 75.4 51.2 123.7z"/><path class="st2" d="M359.7 184.9c0 24.8-3.8 45.2-11.3 61.1L224.1 478.9c-3.6 7.5-9.1 13.4-16.2 17.8s-14.9 6.5-23.1 6.5-15.9-2.2-23.1-6.5-12.5-10.2-15.9-17.8L21.3 246C13.8 230.1 10 209.7 10 184.9c0-48.3 17.1-89.5 51.2-123.6S136.6 10 184.9 10s89.5 17.1 123.6 51.2 51.2 75.4 51.2 123.7z"/></g></svg>